<?xml version="1.0"?>
<svg xmlns="http://www.w3.org/2000/svg" height="512px" viewBox="0 -20 512 512" width="512px" class=""><g><path d="m512 121.621094c0-67.0625-54.558594-121.621094-121.621094-121.621094-32.265625 0-59.863281 20.296875-70.746094 48.785156-41.226562-12.601562-86.011718-12.613281-127.265624 0-10.882813-28.488281-38.480469-48.785156-70.75-48.785156-67.058594 0-121.617188 54.558594-121.617188 121.621094 0 32.265625 20.296875 59.867187 48.785156 70.746094-20.59375 67.367187-7.902344 143.945312 40.515625 202.046874l-44.109375 44.109376c-7.808594 7.8125-7.808594 20.476562 0 28.285156s20.472656 7.8125 28.285156 0l44.109376-44.109375c80.019531 66.679687 196.824218 66.667969 276.828124 0l44.109376 44.109375c7.8125 7.808594 20.476562 7.8125 28.285156 0 7.8125-7.8125 7.8125-20.472656 0-28.285156l-44.109375-44.109376c48.5-58.199218 61.058593-134.851562 40.515625-202.046874 28.488281-10.882813 48.785156-38.480469 48.785156-70.746094zm-390.378906-81.621094c15.597656 0 28.882812 10.054688 33.734375 24.023438-37.933594 19.945312-70.496094 51.699218-91.335938 91.335937-50.128906-17.425781-17.84375-115.359375 57.601563-115.359375zm134.378906 392.664062c-97.414062 0-176.667969-79.25-176.667969-176.664062s79.253907-176.667969 176.667969-176.667969 176.667969 79.253907 176.667969 176.667969-79.253907 176.664062-176.667969 176.664062zm191.980469-277.308593c-19.949219-37.933594-51.703125-70.496094-91.335938-91.335938 4.851563-13.964843 18.136719-24.019531 33.738281-24.019531 75.4375 0 107.742188 97.929688 57.597657 115.355469zm-93.3125 100.644531c0 11.046875-8.953125 20-20 20h-78.667969c-11.046875 0-20-8.953125-20-20v-78.667969c0-11.046875 8.953125-20 20-20s20 8.953125 20 20v58.667969h58.667969c11.046875 0 20 8.953125 20 20zm0 0" data-original="#000000" class="active-path" data-old_color="#000000" fill="#FFFFFF"/></g> </svg>
