<svg xmlns="http://www.w3.org/2000/svg" xmlns:xlink="http://www.w3.org/1999/xlink" width="60" height="63" viewBox="0 0 60 63">
    <defs>
        <path id="a" d="M0 0h84v78H0z"/>
    </defs>
    <g fill="none" fill-rule="evenodd" transform="translate(-11 -9)">
        <mask id="b" fill="#fff">
            <use xlink:href="#a"/>
        </mask>
        <g mask="url(#b)">
            <path fill="#F58329" fill-rule="nonzero" d="M69.947 9H12.053C11.47 9 11 9.517 11 10.154v18.461c0 .638.471 1.154 1.053 1.154h57.894c.582 0 1.053-.516 1.053-1.154V10.154C71 9.517 70.529 9 69.947 9zm-56.842 2.308h38.948v16.154H13.105V11.308zm55.79 16.154H54.158V11.308h14.737v16.154z"/>
            <path fill="#F58329" fill-rule="nonzero" d="M65.58 23.888l-2.113-2.771a4.33 4.33 0 0 0 1.166-2.61c.202-2.307-1.413-4.34-3.6-4.532-2.187-.192-4.13 1.53-4.333 3.838-.202 2.308 1.413 4.342 3.6 4.533a3.798 3.798 0 0 0 2.339-.559l2.13 2.792a.503.503 0 0 0 .73.08.57.57 0 0 0 .081-.771zm-4.643-8.821c1.617.141 2.81 1.644 2.661 3.35-.15 1.706-1.586 2.979-3.202 2.837-1.617-.141-2.81-1.644-2.661-3.35.15-1.706 1.586-2.979 3.202-2.837z"/>
            <path fill="#FFE5D5" d="M12.682 43.254c-1.107-5.131-1.107-8.096 0-8.895 1.625-1.174 17.476.334 18.72-.567.583-.423 0 .567 0 .567.039-.023 12.398-.023 37.077 0 .53.373 1.013 6.09 1.45 17.15l-25.754 1.312H28.296c-1.451.365-2.276.365-2.474 0-.128-.237-2.191.36-3.286 0-.551-.181-.016-2.577 0-2.799.012-.172-.716-.785-.447-.965 1.028-.69 4.328-.944 4.288-1.14-.551-2.715.211-3.534 0-4.663-.365-1.946 1.037-4.484 0-4.764-2.317-.626-3.89-.626-4.718 0-3.067-.672-4.754-.672-5.062 0-1.18 2.576.482 5.486 0 7.439-.235.95-.429 1.907 1.138 3.128.428.334 3.2-.378 3.924 0 .414.216.891.58.877.965-.025.644.014 1.311-.877 2.799-.955 1.595-8.58-.879-8.977-1.311-1.024-1.114-1.024-3.866 0-8.256z"/>
            <path fill="#F58329" fill-rule="nonzero" d="M30.077 69.121h18.846c.595 0 1.077-.489 1.077-1.093 0-.603-.482-1.093-1.077-1.093H30.077c-.595 0-1.077.49-1.077 1.093 0 .604.482 1.093 1.077 1.093zM66.946 60.377H30.054c-.582 0-1.054.489-1.054 1.093 0 .603.472 1.093 1.054 1.093h36.892c.582 0 1.054-.49 1.054-1.093 0-.604-.472-1.093-1.054-1.093zM30.077 47.26h18.846c.595 0 1.077-.49 1.077-1.094 0-.604-.482-1.093-1.077-1.093H30.077c-.595 0-1.077.49-1.077 1.093 0 .604.482 1.093 1.077 1.093zM30.054 40.7h36.892c.582 0 1.054-.489 1.054-1.093 0-.603-.472-1.093-1.054-1.093H30.054c-.582 0-1.054.49-1.054 1.093 0 .604.472 1.093 1.054 1.093z"/>
            <path fill="#F58329" fill-rule="nonzero" d="M69.947 33.049H12.053c-.582 0-1.053.516-1.053 1.153v18.462c0 .637.471 1.154 1.053 1.154h57.894c.582 0 1.053-.517 1.053-1.154V34.202c0-.637-.471-1.153-1.053-1.153zM68.895 51.51h-55.79V35.356h55.79V51.51zM25.9 59.283h-8.8c-.607 0-1.1.539-1.1 1.203v9.62c0 .663.493 1.202 1.1 1.202h8.8c.607 0 1.1-.539 1.1-1.203v-9.62c0-.663-.493-1.202-1.1-1.202zm-.6 10.166h-7.6v-8.307h7.6v8.307z"/>
            <path fill="#F58329" fill-rule="nonzero" d="M25.9 37.421h-8.8c-.607 0-1.1.538-1.1 1.202v9.62c0 .664.493 1.202 1.1 1.202h8.8c.607 0 1.1-.538 1.1-1.202v-9.62c0-.664-.493-1.202-1.1-1.202zm-.6 10.166h-7.6V39.28h7.6v8.308z"/>
        </g>
    </g>
</svg>
