<svg xmlns="http://www.w3.org/2000/svg" xmlns:xlink="http://www.w3.org/1999/xlink" width="98" height="63" viewBox="0 0 98 63">
    <defs>
        <path id="a" d="M0 0h105v78H0z"/>
    </defs>
    <g fill="none" fill-rule="evenodd" transform="translate(-4 -6)">
        <mask id="b" fill="#fff">
            <use xlink:href="#a"/>
        </mask>
        <g mask="url(#b)">
            <path fill="#F58329" fill-rule="nonzero" d="M78.344 66.408h-5.478v-7.762h5.478v7.762zm17.286-4.473c-.766 0-1.52.154-2.216.448a7.164 7.164 0 0 0-3.953-1.889v-5.418c.463.302.998.462 1.556.462.904 0 1.759-.427 2.287-1.145a2.707 2.707 0 0 0-.647-3.83l-15.413-10.79a2.861 2.861 0 0 0-3.276 0L58.553 50.564a2.707 2.707 0 0 0-.646 3.83c.885 1.203 2.59 1.499 3.843.683v5.417a7.166 7.166 0 0 0-3.954 1.889 5.696 5.696 0 0 0-2.216-.448c-3.08 0-5.585 2.447-5.585 5.454 0 .54.45.98 1.004.98h49.213a.992.992 0 0 0 1.004-.98c0-3.007-2.506-5.454-5.586-5.454zm-8.177 4.473h-7.1v-8.743c0-.54-.45-.98-1.005-.98h-7.486a.992.992 0 0 0-1.004.98v8.743h-7.1V53.674l11.847-8.294 11.848 8.295v12.733zM76.19 43.378a1.02 1.02 0 0 0-1.17 0L62.17 52.374l-1.51 1.057a.817.817 0 0 1-1.12-.18.773.773 0 0 1 .184-1.094L75.14 41.366a.816.816 0 0 1 .934 0l15.414 10.791c.36.252.443.743.186 1.093a.804.804 0 0 1-.656.328.81.81 0 0 1-.466-.147l-14.36-10.053zm13.27 23.03v-3.924a5.131 5.131 0 0 1 2.961 1.736c.32.381.882.47 1.31.209a3.636 3.636 0 0 1 1.9-.533c1.624 0 2.998 1.062 3.433 2.512h-9.603z"/>
            <path fill="#F9F9F9" d="M46.859 59.012h14.844v9.357H46.859z"/>
            <path fill="#FFE5D5" d="M63.633 53.44c2.74-1.62 4.69-2.85 5.852-3.689 1.706-1.232 3.264-2.376 4.57-3.322.612-.444 1.495-.998 1.495-.998.062-.036.251.07.503.24.326.22.666.52 1.157.84.105.067.236.126.356.22.157.123.316.197.453.293.836.588 1.519 1.156 2.372 1.734 1.47.998 3.83 2.625 7.076 4.88V66.41H80.39V57.72c0-.13-.119-.484-.239-.604-.123-.123-.249-.338-.398-.387-.435-.14-.963 0-1.735 0h-6.186c-1.023 0-.96.757-1.04 3.993-.028 1.141-.028 3.037 0 5.687h-7.16V53.44z"/>
            <g fill="#F58329" fill-rule="nonzero">
                <path d="M64.647 66.285H60.47a8.18 8.18 0 0 0 .064-1.039c0-2.934-1.67-5.43-4.112-6.587v-34.99c0-.623-.41-1.039-1.027-1.039H39.977V7.04c0-.624-.411-1.04-1.028-1.04H11.196c-.617 0-1.029.416-1.029 1.04v59.245h-5.14c-.616 0-1.027.416-1.027 1.04 0 .624.411 1.04 1.028 1.04h59.619c.616 0 1.028-.416 1.028-1.04 0-.624-.412-1.04-1.028-1.04zm-10.28-8.241a7.342 7.342 0 0 0-1.027-.074c-.776 0-1.538.134-2.257.384-.179-.242-.468-.384-.827-.384-.617 0-1.028.416-1.028 1.04v.318c-.39.284-.752.608-1.08.968a6.735 6.735 0 0 0-.153.169c-.852-1.077-1.95-1.856-3.19-2.235a1.03 1.03 0 0 0-.717-.26c-.114 0-.222.015-.32.042a6.024 6.024 0 0 0-.707-.042c-.645 0-1.37.085-1.958.326-.073.025-.145.05-.216.078a6.383 6.383 0 0 0-2.417-1.236l-.028-.007a6.256 6.256 0 0 0-.418-.093l-.083-.016a5.959 5.959 0 0 0-.473-.063c-.046-.005-.09-.008-.136-.011l-.146-.01a6.035 6.035 0 0 0-.518-.003l-.147.008c-.02 0-.039.002-.059.003a5.992 5.992 0 0 0-2.653.803V24.71h20.558v33.335zM12.223 8.079h25.698V22.63h-5.14c-.616 0-1.027.416-1.027 1.04v32.325a7.452 7.452 0 0 0-1.967-1.423l-.07-.035a7.056 7.056 0 0 0-2.365-.684l-.036-.004a7.005 7.005 0 0 0-.292-.023l-.077-.005a6.923 6.923 0 0 0-4.444 1.355v-.324c0-.623-.412-1.04-1.029-1.04-.616 0-1.027.417-1.027 1.04v2.08c0 .155.025.298.073.425a7.547 7.547 0 0 0-.998 2.796 6.935 6.935 0 0 0-3.187 1.211v-.275c0-.624-.411-1.04-1.028-1.04s-1.028.416-1.028 1.04v2.079c0 .121.016.234.046.338a7.3 7.3 0 0 0-1 2.78h-1.102V8.079zm7.756 54.07l.061-.004a5.138 5.138 0 0 1 .407-.017c.616 0 1.027-.416 1.027-1.04 0-2.91 2.262-5.197 5.14-5.197 2.57 0 4.728 1.871 5.037 4.47a1.127 1.127 0 0 0 .504.695l.048.03a1.058 1.058 0 0 0 .27.106c.061.021.131.029.204.027a.991.991 0 0 0 .824-.442l.103-.104c.822-1.04 1.953-1.663 3.29-1.663.693 0 1.387.196 2.01.564-1.226 1.166-1.922 2.686-2.002 4.312a6.312 6.312 0 0 0 .346 2.4H15.41c.48-2.238 2.313-3.93 4.569-4.137zm19.695 4.136c-.393-.671-.622-1.465-.622-2.182 0-1.15.448-2.185 1.218-2.942a4.17 4.17 0 0 1 .47-.38c.16 0 .322-.033.47-.108 2.262-1.248 4.934-.104 5.757 2.182.102.312.41.624.925.624a.703.703 0 0 0 .314-.087c.258-.043.462-.234.61-.537a4.765 4.765 0 0 1 1.767-2.018.941.941 0 0 0 .412-.236 5.165 5.165 0 0 1 2.345-.552c2.878 0 5.14 2.287 5.14 5.197 0 .312 0 .728-.103 1.04H39.674z"/>
                <path d="M38.496 32.426c-.627 0-1.045.422-1.045 1.057v2.114c0 .634.418 1.057 1.045 1.057s1.045-.423 1.045-1.057v-2.114c0-.635-.418-1.057-1.045-1.057zM38.496 51.452c-.627 0-1.045.423-1.045 1.057v2.114c0 .634.418 1.057 1.045 1.057s1.045-.423 1.045-1.057V52.51c0-.634-.418-1.057-1.045-1.057zM38.496 39.825c-.627 0-1.045.423-1.045 1.057v2.114c0 .634.418 1.057 1.045 1.057s1.045-.423 1.045-1.057v-2.114c0-.634-.418-1.057-1.045-1.057zM38.496 46.167c-.627 0-1.045.423-1.045 1.057v2.114c0 .634.418 1.057 1.045 1.057s1.045-.423 1.045-1.057v-2.114c0-.634-.418-1.057-1.045-1.057zM38.496 27.14c-.627 0-1.045.423-1.045 1.057v2.115c0 .634.418 1.057 1.045 1.057s1.045-.423 1.045-1.057v-2.115c0-.634-.418-1.057-1.045-1.057zM44.768 36.654c.627 0 1.045-.423 1.045-1.057v-2.114c0-.635-.418-1.057-1.045-1.057s-1.045.422-1.045 1.057v2.114c0 .634.418 1.057 1.045 1.057zM44.768 31.369c.627 0 1.045-.423 1.045-1.057v-2.115c0-.634-.418-1.057-1.045-1.057s-1.045.423-1.045 1.057v2.115c0 .634.418 1.057 1.045 1.057zM44.768 44.053c.627 0 1.045-.423 1.045-1.057v-2.114c0-.634-.418-1.057-1.045-1.057s-1.045.423-1.045 1.057v2.114c0 .634.418 1.057 1.045 1.057zM44.768 50.395c.627 0 1.045-.423 1.045-1.057v-2.114c0-.634-.418-1.057-1.045-1.057s-1.045.423-1.045 1.057v2.114c0 .634.418 1.057 1.045 1.057zM44.768 55.68c.627 0 1.045-.423 1.045-1.057V52.51c0-.634-.418-1.057-1.045-1.057s-1.045.423-1.045 1.057v2.114c0 .634.418 1.057 1.045 1.057zM49.995 44.053c.627 0 1.045-.423 1.045-1.057v-2.114c0-.634-.418-1.057-1.045-1.057-.628 0-1.046.423-1.046 1.057v2.114c0 .634.418 1.057 1.046 1.057zM49.995 36.654c.627 0 1.045-.423 1.045-1.057v-2.114c0-.635-.418-1.057-1.045-1.057-.628 0-1.046.422-1.046 1.057v2.114c0 .634.418 1.057 1.046 1.057zM49.995 55.68c.627 0 1.045-.423 1.045-1.057V52.51c0-.634-.418-1.057-1.045-1.057-.628 0-1.046.423-1.046 1.057v2.114c0 .634.418 1.057 1.046 1.057zM49.995 50.395c.627 0 1.045-.423 1.045-1.057v-2.114c0-.634-.418-1.057-1.045-1.057-.628 0-1.046.423-1.046 1.057v2.114c0 .634.418 1.057 1.046 1.057zM49.995 31.369c.627 0 1.045-.423 1.045-1.057v-2.115c0-.634-.418-1.057-1.045-1.057-.628 0-1.046.423-1.046 1.057v2.115c0 .634.418 1.057 1.046 1.057zM16.544 46.167c.627 0 1.045-.423 1.045-1.057v-2.114c0-.634-.418-1.057-1.045-1.057s-1.045.423-1.045 1.057v2.114c0 .634.418 1.057 1.045 1.057zM16.544 51.452c.627 0 1.045-.423 1.045-1.057v-2.114c0-.634-.418-1.057-1.045-1.057s-1.045.423-1.045 1.057v2.114c0 .634.418 1.057 1.045 1.057zM16.544 57.794c.627 0 1.045-.423 1.045-1.057v-2.114c0-.634-.418-1.057-1.045-1.057s-1.045.423-1.045 1.057v2.114c0 .634.418 1.057 1.045 1.057zM16.544 14.456c.627 0 1.045-.423 1.045-1.057v-2.114c0-.634-.418-1.057-1.045-1.057s-1.045.423-1.045 1.057V13.4c0 .634.418 1.057 1.045 1.057zM16.544 21.855c.627 0 1.045-.422 1.045-1.057v-2.114c0-.634-.418-1.057-1.045-1.057s-1.045.423-1.045 1.057v2.114c0 .634.418 1.057 1.045 1.057zM16.544 27.14c.627 0 1.045-.422 1.045-1.057V23.97c0-.634-.418-1.057-1.045-1.057s-1.045.423-1.045 1.057v2.114c0 .635.418 1.057 1.045 1.057zM16.544 32.426c.627 0 1.045-.423 1.045-1.057v-2.115c0-.634-.418-1.057-1.045-1.057s-1.045.423-1.045 1.057v2.115c0 .634.418 1.057 1.045 1.057zM16.544 38.768c.627 0 1.045-.423 1.045-1.057v-2.114c0-.635-.418-1.057-1.045-1.057s-1.045.422-1.045 1.057v2.114c0 .634.418 1.057 1.045 1.057zM21.77 21.855c.628 0 1.046-.422 1.046-1.057v-2.114c0-.634-.418-1.057-1.045-1.057-.628 0-1.046.423-1.046 1.057v2.114c0 .634.418 1.057 1.046 1.057zM21.77 14.456c.628 0 1.046-.423 1.046-1.057v-2.114c0-.634-.418-1.057-1.045-1.057-.628 0-1.046.423-1.046 1.057V13.4c0 .634.418 1.057 1.046 1.057zM21.77 32.426c.628 0 1.046-.423 1.046-1.057v-2.115c0-.634-.418-1.057-1.045-1.057-.628 0-1.046.423-1.046 1.057v2.115c0 .634.418 1.057 1.046 1.057zM21.77 27.14c.628 0 1.046-.422 1.046-1.057V23.97c0-.634-.418-1.057-1.045-1.057-.628 0-1.046.423-1.046 1.057v2.114c0 .635.418 1.057 1.046 1.057zM21.77 38.768c.628 0 1.046-.423 1.046-1.057v-2.114c0-.635-.418-1.057-1.045-1.057-.628 0-1.046.422-1.046 1.057v2.114c0 .634.418 1.057 1.046 1.057zM21.77 46.167c.628 0 1.046-.423 1.046-1.057v-2.114c0-.634-.418-1.057-1.045-1.057-.628 0-1.046.423-1.046 1.057v2.114c0 .634.418 1.057 1.046 1.057zM21.77 51.452c.628 0 1.046-.423 1.046-1.057v-2.114c0-.634-.418-1.057-1.045-1.057-.628 0-1.046.423-1.046 1.057v2.114c0 .634.418 1.057 1.046 1.057zM26.997 27.14c.628 0 1.046-.422 1.046-1.057V23.97c0-.634-.418-1.057-1.046-1.057-.627 0-1.045.423-1.045 1.057v2.114c0 .635.418 1.057 1.045 1.057zM26.997 21.855c.628 0 1.046-.422 1.046-1.057v-2.114c0-.634-.418-1.057-1.046-1.057-.627 0-1.045.423-1.045 1.057v2.114c0 .634.418 1.057 1.045 1.057zM26.997 14.456c.628 0 1.046-.423 1.046-1.057v-2.114c0-.634-.418-1.057-1.046-1.057-.627 0-1.045.423-1.045 1.057V13.4c0 .634.418 1.057 1.045 1.057zM26.997 51.452c.628 0 1.046-.423 1.046-1.057v-2.114c0-.634-.418-1.057-1.046-1.057-.627 0-1.045.423-1.045 1.057v2.114c0 .634.418 1.057 1.045 1.057zM26.997 46.167c.628 0 1.046-.423 1.046-1.057v-2.114c0-.634-.418-1.057-1.046-1.057-.627 0-1.045.423-1.045 1.057v2.114c0 .634.418 1.057 1.045 1.057zM26.997 38.768c.628 0 1.046-.423 1.046-1.057v-2.114c0-.635-.418-1.057-1.046-1.057-.627 0-1.045.422-1.045 1.057v2.114c0 .634.418 1.057 1.045 1.057zM26.997 32.426c.628 0 1.046-.423 1.046-1.057v-2.115c0-.634-.418-1.057-1.046-1.057-.627 0-1.045.423-1.045 1.057v2.115c0 .634.418 1.057 1.045 1.057zM33.27 21.855c.626 0 1.045-.422 1.045-1.057v-2.114c0-.634-.419-1.057-1.046-1.057s-1.045.423-1.045 1.057v2.114c0 .634.418 1.057 1.045 1.057zM33.27 14.456c.626 0 1.045-.423 1.045-1.057v-2.114c0-.634-.419-1.057-1.046-1.057s-1.045.423-1.045 1.057V13.4c0 .634.418 1.057 1.045 1.057z"/>
            </g>
        </g>
    </g>
</svg>
