<svg xmlns="http://www.w3.org/2000/svg" xmlns:xlink="http://www.w3.org/1999/xlink" width="33" height="33" viewBox="0 0 33 33">
    <defs>
        <path id="a" d="M16.412 0C7.362 0 0 7.363 0 16.412c0 9.05 7.363 16.412 16.412 16.412 9.05 0 16.412-7.362 16.412-16.412C32.824 7.362 25.462 0 16.412 0zm0 30.18c-7.591 0-13.767-6.177-13.767-13.768 0-7.592 6.176-13.767 13.767-13.767 7.591 0 13.767 6.176 13.767 13.767 0 7.591-6.176 13.767-13.767 13.767z"/>
    </defs>
    <g fill="none" fill-rule="evenodd">
        <g fill-rule="nonzero">
            <use fill="#11BF4C" fill-rule="evenodd" xlink:href="#a"/>
            <path stroke="#FFF" stroke-width=".5" d="M16.412.25C7.501.25.25 7.5.25 16.412c0 8.912 7.25 16.162 16.162 16.162 8.912 0 16.162-7.25 16.162-16.162C32.574 7.5 25.324.25 16.412.25zm0 30.18c-7.73 0-14.017-6.289-14.017-14.018 0-7.73 6.288-14.017 14.017-14.017 7.73 0 14.017 6.288 14.017 14.017 0 7.73-6.288 14.017-14.017 14.017z"/>
        </g>
        <g fill="#11BF4C" transform="translate(2.063 2.063)">
            <circle cx="13.89" cy="13.89" r="13.89" fill-opacity=".116"/>
            <path fill-rule="nonzero" d="M19.498 9.521l-7.66 7.661-2.804-2.803a1.321 1.321 0 1 0-1.87 1.87l3.739 3.738a1.32 1.32 0 0 0 1.87 0l8.596-8.596a1.323 1.323 0 0 0-1.87-1.87z"/>
        </g>
    </g>
</svg>
