<svg xmlns="http://www.w3.org/2000/svg" width="136" height="90" viewBox="0 0 136 90">
    <g fill="none" fill-rule="evenodd">
        <g opacity=".837">
            <path fill="#E7E7E7" d="M72.716 88.323c23.676 0 42.87-19.324 42.87-43.161C115.585 21.324 96.391 2 72.715 2s-42.87 19.324-42.87 43.162c0 23.837 19.194 43.161 42.87 43.161z"/>
            <path stroke="#D6D6D6" stroke-width="3" d="M67.772 88.323c23.676 0 42.869-19.324 42.869-43.161C110.641 21.324 91.448 2 67.771 2 44.097 2 24.903 21.324 24.903 45.162c0 23.837 19.194 43.161 42.87 43.161z"/>
        </g>
        <g fill="#EAEAEA" transform="rotate(13 -73.357 15.241)">
            <rect width="2.66" height="10.962" x="4.693" rx="1.33"/>
            <rect width="2.66" height="10.962" x="4.693" rx="1.33" transform="rotate(-90 6.023 5.48)"/>
        </g>
        <g fill="#EAEAEA" transform="rotate(13 -44.52 76.67)">
            <rect width="1.693" height="6.976" x="2.898" rx=".846"/>
            <rect width="1.693" height="6.976" x="2.898" rx=".846" transform="rotate(-90 3.744 3.488)"/>
        </g>
        <g fill="#1EA7DD" fill-opacity=".53" transform="rotate(13 -94.702 74.828)">
            <rect width="1" height="3.488" x="1.61" rx=".5"/>
            <rect width="1" height="3.488" x="1.61" rx=".5" transform="rotate(-90 2.08 1.744)"/>
        </g>
        <g fill="#1EA7DD" fill-opacity=".53" transform="rotate(13 -33.139 112.852)">
            <rect width="1" height="3.488" x="1.61" rx=".5"/>
            <rect width="1" height="3.488" x="1.61" rx=".5" transform="rotate(-90 2.08 1.744)"/>
        </g>
        <g fill="#EAEAEA" transform="rotate(13 -126.569 67.777)">
            <rect width="1.693" height="6.976" x="2.898" rx=".846"/>
            <rect width="1.693" height="6.976" x="2.898" rx=".846" transform="rotate(-90 3.744 3.488)"/>
        </g>
        <g>
            <g fill="#EAEAEA">
                <g transform="scale(-1 1) rotate(-16 134.935 517.449)">
                    <rect width="2.133" height="8.769" x="3.764" rx="1.067"/>
                    <rect width="2.133" height="8.769" x="3.764" rx="1.067" transform="rotate(-90 4.831 4.385)"/>
                </g>
                <g transform="scale(-1 1) rotate(-16 106.619 482.444)">
                    <rect width="1.358" height="5.58" x="2.152" rx=".679"/>
                    <rect width="1.358" height="5.58" x="2.152" y=".002" rx=".679" transform="rotate(-90 2.83 2.792)"/>
                </g>
                <g transform="scale(-1 1) rotate(-16 159.798 474.97)">
                    <rect width="1.358" height="5.58" x="2.152" rx=".679"/>
                    <rect width="1.358" height="5.58" x="2.152" y=".002" rx=".679" transform="rotate(-90 2.83 2.792)"/>
                </g>
            </g>
            <g fill="#1EA7DD" fill-opacity=".53" transform="rotate(16 -135.601 463.578)">
                <rect width="1" height="3.488" x="1.61" rx=".5"/>
                <rect width="1" height="3.488" x="1.61" rx=".5" transform="rotate(-90 2.08 1.744)"/>
            </g>
        </g>
        <g>
            <g transform="translate(94.659 17.695)">
                <path fill="#1EA7DD" d="M17.112 2.938A9.955 9.955 0 0 0 10.022 0a9.955 9.955 0 0 0-7.089 2.938C-.73 6.602-.984 12.465 2.301 16.421c-.322.649-.839 1.404-1.606 1.781a.94.94 0 0 0 .271 1.772c.19.03.462.06.793.06.886 0 2.192-.208 3.527-1.17a10.026 10.026 0 0 0 11.83-1.747 9.955 9.955 0 0 0 2.938-7.09 9.959 9.959 0 0 0-2.942-7.089z"/>
                <circle cx="10.022" cy="10.027" r="1" fill="#FFF"/>
                <circle cx="13.652" cy="10.027" r="1" fill="#FFF"/>
                <circle cx="6.393" cy="10.027" r="1" fill="#FFF"/>
            </g>
        </g>
        <g transform="translate(45.83 26.415)">
            <path fill="#CACACA" d="M38.67 8.846V4.35A4.355 4.355 0 0 0 34.318 0a4.358 4.358 0 0 0-4.215 3.274 26.666 26.666 0 0 1-16.086 5.427H8.7C3.903 8.7 0 12.604 0 17.4c0 4.133 2.897 7.602 6.767 8.484v14.234a4.355 4.355 0 0 0 4.35 4.35 4.355 4.355 0 0 0 4.35-4.35V26.143a26.68 26.68 0 0 1 14.637 5.385 4.358 4.358 0 0 0 4.215 3.274 4.355 4.355 0 0 0 4.35-4.35v-7.396c3.306-.674 5.8-3.604 5.8-7.105 0-3.501-2.494-6.43-5.8-7.105zM12.567 40.12c0 .8-.651 1.45-1.45 1.45-.8 0-1.45-.65-1.45-1.45V26.102h2.9v14.017zm0-16.918H8.7a5.807 5.807 0 0 1-5.8-5.8c0-3.198 2.601-5.8 5.8-5.8h3.867v11.6zm17.4 4.695a29.618 29.618 0 0 0-14.5-4.658V11.565a29.618 29.618 0 0 0 14.5-4.659v20.99zm5.8 2.556c0 .8-.65 1.45-1.45 1.45-.799 0-1.45-.65-1.45-1.45V4.35c0-.8.651-1.45 1.45-1.45.8 0 1.45.65 1.45 1.45v26.102zm2.901-10.4V11.85a4.357 4.357 0 0 1 2.9 4.1 4.357 4.357 0 0 1-2.9 4.102z"/>
            <rect width="4.36" height="29.646" x="32.262" y="2.616" fill="#D8D8D8" rx="2.18"/>
        </g>
    </g>
</svg>
