<svg xmlns="http://www.w3.org/2000/svg" xmlns:xlink="http://www.w3.org/1999/xlink" width="35" height="60" viewBox="0 0 35 60">
    <defs>
        <path id="a" d="M0 0h54v78H0z"/>
    </defs>
    <g fill="none" fill-rule="evenodd" transform="translate(-10 -8)">
        <mask id="b" fill="#fff">
            <use xlink:href="#a"/>
        </mask>
        <path fill="#FFE5D5" d="M11.207 16.448H45v39.828H11.207z" mask="url(#b)"/>
        <g mask="url(#b)">
            <g transform="translate(10 8)">
                <g fill="#F58329" fill-rule="nonzero">
                    <path d="M30.448 0H4.434C1.99 0 0 1.971 0 4.395v51.21C0 58.03 1.99 60 4.434 60h26.014c2.445 0 4.434-1.971 4.434-4.395V4.395C34.882 1.97 32.892 0 30.448 0zm2.66 47.695H7.981a.883.883 0 0 0-.886.88c0 .485.397.878.886.878h25.127v6.152c0 1.454-1.193 2.637-2.66 2.637H4.434c-1.467 0-2.66-1.183-2.66-2.637v-6.152h2.66c.49 0 .887-.393.887-.879a.883.883 0 0 0-.887-.879h-2.66V8.79h31.334v38.906zm0-40.664H1.774V4.395c0-1.454 1.193-2.637 2.66-2.637h26.014c1.467 0 2.66 1.183 2.66 2.637V7.03z"/>
                    <path d="M20.434 3h-3.547a.883.883 0 0 0-.887.879c0 .485.397.879.887.879h3.547c.49 0 .887-.394.887-.88A.883.883 0 0 0 20.434 3zM17.66 51C16.193 51 15 52.183 15 53.637s1.193 2.636 2.66 2.636c1.468 0 2.66-1.182 2.66-2.636 0-1.454-1.192-2.637-2.66-2.637zm0 3.516a.884.884 0 0 1-.886-.88c0-.484.397-.878.886-.878.49 0 .887.394.887.879a.884.884 0 0 1-.887.879z"/>
                    <ellipse cx="13.887" cy="3.879" rx="1" ry="1"/>
                </g>
                <circle cx="15.69" cy="28.966" r="6.034" fill="#FFF"/>
                <path fill="#F58329" fill-rule="nonzero" d="M25.732 39.307l-4.266-5.104a7.506 7.506 0 0 0 2.292-4.76c.37-4.223-2.888-7.97-7.262-8.353-4.374-.382-8.233 2.742-8.602 6.965-.37 4.222 2.888 7.97 7.262 8.352a8.073 8.073 0 0 0 4.666-.988l4.297 5.143c.18.214.435.346.719.371.269.024.532-.053.741-.216a.98.98 0 0 0 .153-1.41zm-9.41-16.219c3.232.283 5.64 3.052 5.367 6.174-.273 3.12-3.125 5.43-6.358 5.147-3.233-.283-5.641-3.052-5.368-6.173.273-3.121 3.125-5.43 6.358-5.148z"/>
            </g>
        </g>
    </g>
</svg>
